# xmcd
#
# Track frame offsets:
# 150
# 20700
# 35795
# 60982
# 90869
# 110124
# 130215
# 152540
# 169998
# 186611
# 204416
# 225649
# 252497
#
# Disc length: 3768 seconds
#
#
# Revision: 0
# Processed by: cddbd v1.5PL3 Copyright (c) Steve Scherf et al.
# Submitted via: FreeRIP 2.52 
#
DISCID=b30eb60d
DTITLE=John Lee Hooker - The Best Of Friends
DYEAR=1998
DGENRE=
TTITLE0=Boogie Chillen
TTITLE1=This Is Hip
TTITLE2=The Healer
TTITLE3=I Cover The WatherFront
TTITLE4=Boom Boom
TTITLE5=I'm in the Mood
TTITLE6=Burning Hell
TTITLE7=Tupelo
TTITLE8=Baby Lee
TTITLE9=Dimples
TTITLE10=Chil Out (Things Gonna Change)
TTITLE11=Big Legs, Tight Skirt
TTITLE12=Don't Look Back
EXTD=
EXTT0=
EXTT1=
EXTT2=
EXTT3=
EXTT4=
EXTT5=
EXTT6=
EXTT7=
EXTT8=
EXTT9=
EXTT10=
EXTT11=
EXTT12=
PLAYORDER=
